Coordinates
version=1
nRows=6
nColumns=63
inDegrees=yes

Units are S.I. units (second, meters, Newtons, ...)
If the header above contains a line with 'inDegrees', this indicates whether rotational values are in degrees (yes) or radians (no).

endheader
time	pelvis_tilt	pelvis_list	pelvis_rotation	pelvis_tx	pelvis_ty	pelvis_tz	hip_flexion_r	hip_adduction_r	hip_rotation_r	knee_angle_r	knee_angle_r_beta	ankle_angle_r	subtalar_angle_r	mtp_angle_r	hip_flexion_l	hip_adduction_l	hip_rotation_l	knee_angle_l	knee_angle_l_beta	ankle_angle_l	subtalar_angle_l	mtp_angle_l	L5_S1_Flex_Ext	L5_S1_Lat_Bending	L5_S1_axial_rotation	L4_L5_Flex_Ext	L4_L5_Lat_Bending	L4_L5_axial_rotation	L3_L4_Flex_Ext	L3_L4_Lat_Bending	L3_L4_axial_rotation	L2_L3_Flex_Ext	L2_L3_Lat_Bending	L2_L3_axial_rotation	L1_L2_Flex_Ext	L1_L2_Lat_Bending	L1_L2_axial_rotation	L1_T12_Flex_Ext	L1_T12_Lat_Bending	L1_T12_axial_rotation	Abs_r3	Abs_r2	Abs_r1	Abs_t1	Abs_t2	neck_flexion	neck_bending	neck_rotation	arm_flex_r	arm_add_r	arm_rot_r	elbow_flex_r	pro_sup_r	wrist_flex_r	wrist_dev_r	arm_flex_l	arm_add_l	arm_rot_l	elbow_flex_l	pro_sup_l	wrist_flex_l	wrist_dev_l
1.216667	-1.422566	-5.985575	95.561481	0.283140	0.849550	0.758975	3.173539	-1.073280	8.776372	4.647068	0.081107	23.508604	0.680183	0.000000	4.336514	-0.252290	2.694714	4.279850	0.074697	23.658883	-1.553026	0.000000	0.127201	0.006656	0.965999	0.236226	0.008853	1.026374	0.208979	0.016184	1.026374	0.145379	0.016184	0.845249	0.118119	0.013573	0.784875	0.072683	0.010310	0.724500	0.908587	0.075296	5.372599	0.000000	0.000000	26.628694	1.014687	-3.390396	0.681796	-23.223771	45.259573	96.025387	87.951544	1.943182	0.806377	-6.018330	-18.272804	20.734517	91.069406	77.631165	11.644699	3.951831
1.233333	-1.432922	-5.982148	95.826815	0.283386	0.849461	0.758247	3.045768	-1.052261	8.767669	4.498519	0.078514	23.532079	0.459318	0.000000	4.292795	-0.243917	2.988462	4.199339	0.073292	23.637462	-1.660450	0.000000	0.128728	0.005163	0.941466	0.239061	0.006866	1.000308	0.211487	0.012552	1.000308	0.147123	0.012552	0.823783	0.119537	0.010527	0.764941	0.073555	0.007997	0.706100	0.919492	0.058399	5.236153	0.000000	0.000000	26.671711	0.894009	-3.181783	1.431304	-23.160740	46.274030	95.370846	87.875182	1.627923	0.039105	-6.088413	-17.983586	20.281910	91.136394	78.589121	11.469185	4.576636
1.250000	-1.478156	-5.990303	96.061891	0.283741	0.849359	0.757463	2.912234	-1.062838	8.757301	4.349563	0.075914	23.504297	0.216130	0.000000	4.241407	-0.208119	3.248677	4.105299	0.071651	23.568506	-1.759362	0.000000	0.130904	-0.002515	0.927258	0.243101	-0.003344	0.985212	0.215062	-0.006114	0.985212	0.149610	-0.006114	0.811351	0.121557	-0.005128	0.753397	0.074798	-0.003895	0.695443	0.935031	-0.028446	5.157131	0.000000	0.000000	26.746463	0.734242	-3.150685	1.908773	-23.068878	47.030636	95.047204	87.698945	1.202934	-0.629188	-6.341995	-17.583824	19.614815	91.314222	79.517148	11.067810	4.912984
1.266667	-1.578623	-6.025401	96.143147	0.284360	0.849235	0.756684	2.824650	-1.128067	8.777437	4.229865	0.073825	23.461241	0.117377	0.000000	4.198369	-0.126989	3.392945	4.012102	0.070024	23.449001	-1.940601	0.000000	0.134611	-0.018501	0.939165	0.249987	-0.024606	0.997863	0.221153	-0.044983	0.997863	0.153847	-0.044983	0.821770	0.125000	-0.037727	0.763072	0.076917	-0.028658	0.704374	0.961515	-0.209287	5.223356	0.000000	0.000000	26.848622	0.518704	-3.280251	2.189899	-22.955037	47.569270	95.037545	87.300606	0.792909	-1.048337	-6.802038	-17.078631	18.686378	91.598931	80.441146	10.471222	4.926573
1.283333	-1.716039	-6.094665	96.093570	0.285205	0.849092	0.755928	2.782415	-1.225680	8.911567	4.112264	0.071773	23.376079	0.012203	0.000000	4.170527	-0.022368	3.402549	3.906859	0.068188	23.313072	-2.085054	0.000000	0.141686	-0.040889	0.993460	0.263125	-0.054382	1.055552	0.232776	-0.099418	1.055552	0.161933	-0.099418	0.869278	0.131569	-0.083381	0.807187	0.080959	-0.063337	0.745095	1.012048	-0.462545	5.525329	0.000000	0.000000	26.966103	0.203272	-3.653713	2.169970	-22.786875	47.729154	95.332806	86.790435	0.463546	-1.165140	-7.335991	-16.554846	17.730431	91.890600	81.294970	9.623651	4.524334
1.300000	-1.902934	-6.182342	95.900406	0.286271	0.848961	0.755280	2.785773	-1.372861	9.053432	4.011366	0.070012	23.312118	0.077696	0.000000	4.149397	0.122221	3.371716	3.800209	0.066326	23.138975	-2.346089	0.000000	0.148409	-0.070773	1.084122	0.275611	-0.094128	1.151879	0.243821	-0.172078	1.151879	0.169617	-0.172078	0.948606	0.137813	-0.144321	0.880849	0.084801	-0.109628	0.813091	1.060071	-0.800600	6.029559	0.000000	0.000000	27.098099	-0.149198	-4.202818	1.986825	-22.584812	47.644583	95.843165	86.076176	0.260650	-0.977191	-7.948586	-16.004853	16.648200	92.202033	82.132771	8.649749	3.954134
